<?xml version="1.0" standalone="no"?>
<!DOCTYPE svg PUBLIC "-//W3C//DTD SVG 20010904//EN"
 "http://www.w3.org/TR/2001/REC-SVG-20010904/DTD/svg10.dtd">
<svg version="1.0" xmlns="http://www.w3.org/2000/svg"
 width="1280.000000pt" height="640.000000pt" viewBox="0 0 1280.000000 640.000000"
 preserveAspectRatio="xMidYMid meet">
<metadata>
Created by potrace 1.15, written by Peter Selinger 2001-2017
</metadata>
<g transform="translate(0.000000,640.000000) scale(0.100000,-0.100000)"
fill="#000000" stroke="none">
<path d="M3473 5820 c-12 -5 -29 -20 -38 -33 -22 -34 -59 -49 -91 -37 -34 13
-39 13 -24 -5 18 -22 6 -19 -53 15 -55 31 -91 37 -117 20 -11 -7 -4 -10 25
-10 39 0 65 -13 65 -33 0 -5 -7 -6 -16 -3 -27 10 -103 -15 -124 -42 -28 -34
-25 -50 4 -23 13 12 40 25 61 28 35 6 37 5 27 -14 -6 -11 -18 -26 -27 -33 -39
-32 -58 -114 -35 -150 6 -10 8 -3 3 23 -6 40 12 54 20 15 3 -15 5 -10 6 13 1
29 9 44 41 73 42 38 61 43 104 26 24 -9 26 -15 26 -65 0 -64 -8 -83 -60 -142
-61 -70 -71 -130 -45 -266 16 -84 25 -106 85 -199 26 -40 40 -73 40 -95 0 -21
7 -40 20 -51 36 -31 144 -93 172 -99 15 -3 32 -11 38 -18 15 -18 -7 -33 -71
-49 -81 -21 -149 -53 -156 -73 -7 -22 -33 -53 -44 -53 -15 0 -39 32 -39 53 0
12 -9 39 -20 60 -11 20 -20 49 -20 63 0 19 -4 25 -17 22 -14 -3 -18 -13 -16
-48 2 -51 5 -53 -62 40 -37 52 -70 67 -96 44 -21 -19 -24 -49 -9 -90 8 -20 8
-29 -2 -35 -19 -12 30 -105 75 -143 l39 -33 -18 -69 c-16 -59 -19 -108 -20
-339 l-1 -270 46 -15 46 -15 3 -54 c2 -29 -2 -86 -8 -125 -10 -67 -10 -72 10
-88 11 -9 20 -20 20 -24 0 -4 -22 -51 -49 -103 -70 -136 -85 -194 -86 -331 -1
-96 -5 -123 -24 -163 -12 -26 -27 -76 -32 -110 -6 -37 -22 -80 -39 -107 -59
-93 -63 -199 -15 -366 33 -113 33 -130 -7 -150 -18 -9 -51 -31 -73 -49 -22
-17 -70 -50 -107 -74 -47 -30 -70 -52 -77 -73 -17 -47 -13 -65 15 -87 53 -42
165 -23 282 48 37 22 95 47 130 56 123 31 141 54 104 131 -23 47 -19 77 12
103 11 9 16 30 16 62 0 43 3 51 24 60 23 11 46 57 60 120 3 15 29 49 57 75 76
72 132 152 168 241 17 43 40 89 50 102 l19 25 44 -36 c32 -26 57 -62 96 -139
45 -90 54 -116 62 -192 16 -139 37 -177 126 -228 56 -32 98 -90 110 -154 3
-18 13 -36 21 -39 13 -5 14 -18 8 -70 -3 -35 -13 -86 -21 -112 -20 -67 -18
-82 15 -115 34 -34 70 -37 147 -14 54 16 101 57 112 98 9 33 -2 157 -19 217
-6 25 -13 74 -15 110 -2 36 -6 96 -10 134 -7 67 -8 69 -50 99 l-44 31 0 77 c0
43 -5 90 -12 106 -6 15 -14 59 -18 97 l-7 70 -68 63 -68 63 7 62 c4 34 14 89
23 122 30 117 15 273 -37 387 -11 24 -20 54 -20 67 0 20 5 22 50 22 38 0 52 4
60 19 15 29 13 50 -19 153 -16 51 -29 118 -30 148 0 30 -5 71 -11 90 -5 19
-10 61 -10 93 0 48 4 62 25 82 13 14 33 25 43 25 26 0 42 21 49 67 6 37 46
113 85 163 18 22 19 34 13 103 -6 74 -5 80 18 103 20 20 38 26 93 30 43 4 79
13 96 25 15 10 54 21 92 25 50 5 72 13 98 34 32 27 33 28 15 48 -22 24 -88 42
-159 42 -68 0 -94 14 -55 29 15 6 39 14 52 17 23 6 36 34 17 34 -30 0 -223
-41 -252 -54 -19 -8 -69 -50 -110 -92 l-75 -76 -14 36 c-9 24 -20 36 -33 36
-10 0 -30 7 -44 17 -17 11 -50 17 -95 18 -100 3 -115 19 -122 142 -4 71 -3 93
8 97 14 5 35 87 35 135 0 16 -7 34 -15 41 -8 7 -15 24 -15 39 -1 34 -52 153
-84 196 -37 49 -147 98 -201 89 -53 -7 -70 8 -78 71 -11 79 16 89 63 23 31
-42 39 -44 18 -5 -10 21 -10 21 7 7 17 -14 17 -14 2 16 -9 17 -23 36 -31 43
-9 8 -16 17 -16 22 0 16 94 10 120 -8 24 -16 24 -16 11 0 -7 9 -10 17 -7 17
14 0 72 -33 94 -53 34 -32 26 -5 -13 40 -55 65 -175 107 -232 83z"/>
<path d="M6470 5204 c-6 -14 -10 -39 -10 -55 0 -19 -5 -29 -14 -29 -11 0 -16
14 -18 48 -3 39 -6 47 -23 47 -18 0 -20 -8 -23 -68 -3 -78 -21 -87 -36 -19
-13 58 -30 47 -34 -21 -3 -52 0 -61 32 -103 22 -29 39 -66 47 -102 7 -31 19
-65 26 -74 21 -24 13 -62 -14 -66 -27 -4 -27 -2 -8 -72 8 -30 15 -65 15 -77 0
-36 -27 -27 -49 15 -20 39 -112 132 -131 132 -5 0 -10 -6 -10 -14 0 -12 -7
-12 -47 1 -63 19 -221 13 -281 -12 -54 -22 -115 -90 -174 -195 -76 -134 -85
-229 -26 -261 33 -18 58 -70 58 -121 0 -27 -5 -48 -10 -48 -6 0 -29 9 -50 20
-30 15 -40 27 -40 44 0 41 -10 55 -48 67 -45 14 -87 52 -112 99 -24 44 -174
219 -208 242 -18 11 -31 14 -43 8 -13 -7 -25 1 -56 38 -38 45 -40 50 -50 156
-11 107 -27 147 -52 132 -6 -4 -11 -27 -11 -52 0 -61 -18 -57 -71 16 -24 33
-50 62 -58 65 -30 12 -30 -13 0 -58 47 -71 31 -79 -34 -18 -50 47 -77 58 -77
30 0 -5 19 -30 41 -54 46 -50 38 -58 -19 -20 -42 29 -52 31 -52 10 0 -8 18
-32 41 -52 44 -40 39 -54 -10 -29 -22 12 -32 13 -37 4 -4 -7 0 -16 10 -22 10
-6 52 -33 94 -61 42 -27 91 -59 110 -70 18 -12 51 -42 74 -68 35 -42 39 -52
34 -83 -6 -30 -3 -38 24 -61 17 -14 89 -94 160 -177 70 -83 178 -209 238 -279
128 -149 142 -179 141 -306 -2 -254 -64 -697 -103 -737 -21 -21 -20 -31 4 -44
11 -6 20 -21 20 -33 -1 -27 -76 -222 -161 -417 l-64 -145 0 -115 c0 -63 -5
-146 -12 -185 -7 -38 -17 -135 -23 -215 -6 -80 -15 -172 -20 -205 -5 -33 -12
-105 -16 -160 -4 -63 -13 -115 -25 -142 -23 -51 -23 -57 -4 -73 19 -16 19 -72
0 -125 -25 -68 -20 -101 23 -146 30 -33 46 -42 82 -46 36 -4 51 -1 73 17 44
35 67 90 67 164 0 55 3 66 19 71 25 8 43 60 41 122 -1 26 0 91 3 143 l4 95 99
202 c53 111 102 199 107 196 5 -3 7 -34 3 -72 -5 -53 -2 -80 13 -131 28 -87
26 -162 -3 -257 -14 -43 -28 -116 -32 -163 -3 -47 -13 -98 -21 -113 -11 -21
-13 -48 -8 -106 4 -43 2 -107 -4 -147 -21 -136 10 -174 142 -174 111 0 121 11
125 138 4 99 4 100 38 133 22 22 34 42 34 60 0 15 8 41 17 57 16 28 16 32 -4
78 -52 127 -54 109 37 302 104 223 134 314 161 492 17 116 21 180 19 320 -2
96 -3 249 -4 340 l-1 165 66 7 c86 8 111 21 100 51 -24 65 -33 192 -29 407 5
218 6 228 37 334 18 59 41 128 52 152 10 25 25 86 33 137 9 51 27 121 40 156
38 95 76 257 76 320 0 31 -11 101 -25 156 -14 55 -27 134 -31 175 -8 111 -11
122 -34 115 -16 -5 -21 1 -30 37 -6 24 -14 51 -17 61 -11 38 9 90 51 136 73
80 85 102 66 131 -7 12 -12 12 -29 -4 -12 -11 -21 -25 -21 -31 0 -17 -27 -38
-34 -27 -3 5 2 28 11 51 15 37 15 44 1 57 -18 19 -32 5 -45 -46 -12 -45 -29
-36 -25 13 5 60 -30 90 -48 41z"/>
<path d="M8483 5219 c-99 -19 -191 -77 -223 -139 -17 -33 -20 -60 -20 -207 -1
-233 18 -312 94 -381 56 -51 47 -93 -30 -138 -40 -24 -56 -27 -119 -26 -57 2
-75 -1 -86 -14 -11 -13 -14 -61 -15 -208 -2 -256 -19 -317 -135 -488 -71 -105
-89 -144 -89 -194 0 -32 -7 -44 -47 -82 -89 -82 -101 -124 -62 -207 17 -36 27
-46 54 -51 46 -8 58 1 39 31 -10 16 -14 34 -10 51 8 30 28 27 36 -6 8 -33 30
-38 30 -7 0 13 7 44 15 67 8 23 15 57 15 75 0 48 8 62 48 87 90 54 154 111
184 165 30 53 32 55 41 32 4 -13 7 -60 5 -105 -3 -85 -6 -91 -87 -197 -16 -21
-41 -73 -55 -115 -15 -42 -42 -100 -62 -129 -38 -55 -38 -73 2 -73 33 0 31
-25 -6 -84 -17 -26 -48 -83 -70 -127 l-40 -79 0 -145 c0 -127 3 -153 21 -196
18 -42 21 -61 15 -121 -8 -88 -1 -98 70 -98 l53 0 28 -76 c17 -47 46 -99 76
-135 26 -33 47 -62 47 -65 0 -4 -9 -4 -21 -1 -18 5 -20 2 -15 -19 5 -19 3 -24
-13 -24 -27 0 -34 -30 -17 -78 18 -49 10 -87 -32 -152 -103 -163 -48 -243 113
-162 95 47 123 72 154 133 17 34 53 82 85 112 38 36 56 61 56 77 0 17 -26 50
-90 113 -98 97 -120 141 -120 238 0 89 9 109 56 130 24 10 44 23 44 30 0 6
-16 39 -35 73 -45 80 -48 147 -10 223 47 93 85 106 104 36 14 -49 14 -110 0
-258 -12 -129 -10 -140 37 -204 22 -31 24 -41 18 -94 l-7 -60 30 6 31 6 6 -59
c5 -39 2 -78 -8 -117 -8 -32 -18 -80 -21 -108 -5 -32 -16 -59 -32 -76 -20 -22
-22 -30 -14 -53 8 -21 5 -43 -14 -104 -32 -98 -32 -130 -2 -141 42 -16 184
-23 227 -11 57 15 75 55 52 117 -13 35 -14 47 -4 61 24 34 24 44 -2 71 -52 54
-53 86 -4 242 38 123 45 139 65 139 30 0 33 9 21 56 -15 54 -5 87 42 138 21
23 44 54 49 69 21 56 72 376 81 517 15 213 24 246 74 263 7 2 2 19 -12 46 -23
40 -23 44 -11 130 l12 88 -42 73 c-23 40 -51 99 -61 131 -27 78 -26 189 0 189
5 0 34 -48 65 -107 31 -60 72 -128 91 -153 28 -36 34 -50 27 -70 -4 -14 -7
-47 -8 -75 0 -38 4 -50 15 -50 10 0 14 8 13 23 -2 12 1 22 6 22 11 0 51 -93
51 -120 0 -28 40 -23 81 10 25 21 29 32 29 72 0 54 -11 89 -45 138 -16 23 -28
61 -35 110 -17 114 -37 174 -97 300 l-55 115 -14 160 c-7 88 -11 175 -8 192
14 75 -23 123 -95 123 -39 0 -60 8 -119 46 -69 44 -82 64 -41 64 26 0 24 7
-11 40 -31 29 -40 73 -18 86 6 4 17 -1 24 -10 11 -16 13 -16 16 6 3 22 6 23
74 20 65 -3 73 -2 88 19 9 13 16 29 16 36 0 7 -34 51 -76 98 -86 97 -84 87
-43 228 l20 68 -21 44 c-60 124 -247 198 -417 164z"/>
<path d="M1665 4923 c-52 -26 -105 -106 -120 -181 -8 -37 -15 -70 -15 -74 0
-5 -15 -25 -33 -45 -41 -46 -182 -287 -213 -363 -16 -38 -29 -56 -43 -58 -17
-3 -21 2 -21 23 0 14 -10 44 -22 66 -23 39 -23 40 -4 54 14 11 16 15 5 15 -10
1 -9 5 5 15 19 14 19 15 -5 15 -15 0 -36 11 -50 26 -37 41 -120 91 -187 113
-89 30 -219 29 -287 -3 -98 -45 -182 -172 -205 -307 -14 -83 -9 -108 30 -153
36 -40 36 -49 10 -87 -28 -38 -79 -163 -86 -211 -9 -53 7 -50 98 15 41 30 80
57 87 61 7 5 15 -3 22 -23 9 -24 22 -34 65 -51 30 -11 59 -20 65 -20 6 0 19
-5 31 -11 20 -11 20 -11 -2 -26 -19 -13 -22 -23 -18 -62 3 -28 16 -63 33 -89
l28 -42 -28 -41 c-20 -31 -25 -49 -21 -70 3 -16 9 -41 12 -57 5 -22 0 -31 -26
-51 -39 -28 -60 -76 -60 -134 0 -29 -7 -53 -20 -70 -31 -40 -78 -146 -91 -206
-9 -38 -27 -75 -57 -116 -127 -170 -175 -399 -137 -655 9 -63 26 -158 37 -210
13 -62 18 -112 14 -144 -5 -48 -113 -329 -168 -439 -26 -52 -35 -61 -82 -82
-76 -34 -94 -59 -120 -175 -3 -14 -23 -45 -46 -68 -41 -45 -50 -75 -26 -89 7
-4 48 -50 90 -101 117 -141 233 -220 337 -229 67 -6 109 13 109 49 0 31 -45
103 -81 129 -27 19 -30 26 -25 57 3 23 20 50 46 77 37 38 40 45 40 96 0 44 6
65 29 101 16 25 34 49 40 52 6 4 20 25 31 47 11 21 28 39 36 39 24 0 13 -92
-15 -130 -30 -42 -29 -103 4 -128 34 -27 117 -46 168 -38 120 19 337 108 357
146 30 55 -14 94 -92 84 l-47 -6 -3 59 c-3 60 15 110 60 167 11 15 22 49 25
85 4 34 14 78 23 98 25 58 46 293 33 372 -36 230 -70 357 -119 456 -28 56 -50
114 -50 130 0 21 13 44 45 78 l45 49 35 -22 c20 -12 37 -21 39 -19 1 2 20 45
41 94 21 50 70 160 110 245 40 85 83 186 94 224 36 116 52 331 31 404 -8 31
-7 35 21 50 17 9 56 32 88 51 31 18 92 49 136 68 170 75 285 156 318 223 7 14
30 37 53 52 24 16 51 47 69 80 15 29 43 67 62 84 51 49 42 84 -12 48 -21 -14
-25 -14 -25 -2 0 8 11 25 25 38 27 26 25 40 -8 40 -27 0 -108 -86 -135 -143
-27 -57 -36 -63 -107 -72 -43 -5 -78 -17 -125 -45 -36 -21 -87 -48 -114 -60
-28 -11 -89 -46 -137 -76 -70 -45 -99 -57 -150 -64 -38 -5 -68 -5 -73 0 -5 5
16 47 51 102 84 129 125 215 179 370 31 92 47 156 51 208 5 68 9 78 39 110 20
22 42 61 55 100 11 36 30 78 41 93 17 24 18 31 7 38 -9 5 -23 -1 -43 -19 l-29
-27 7 29 c23 94 22 96 -29 69z"/>
<path d="M11205 4520 c-91 -7 -101 -10 -120 -34 -11 -14 -30 -26 -42 -26 -32
0 -70 -53 -83 -117 -16 -76 -17 -317 -1 -371 8 -30 22 -49 47 -65 54 -35 57
-94 4 -80 -10 3 -31 -2 -46 -11 l-29 -15 33 -1 c60 0 34 -23 -88 -78 -25 -11
-80 -51 -122 -89 -237 -210 -303 -263 -403 -328 -120 -79 -171 -127 -238 -222
-23 -35 -73 -88 -110 -118 -59 -49 -67 -60 -67 -90 0 -41 -23 -60 -86 -70 -57
-9 -98 -36 -118 -79 -23 -49 -10 -68 22 -30 24 28 24 28 8 2 -18 -30 -21 -74
-6 -83 6 -3 10 -2 10 2 0 5 6 17 13 27 11 15 12 12 9 -23 -5 -48 11 -54 32
-13 8 16 23 35 33 43 17 13 17 13 1 -7 -20 -23 -24 -54 -7 -54 6 0 25 11 43
25 40 31 61 33 46 6 -11 -22 -4 -51 14 -51 25 0 87 81 94 123 8 42 8 42 48 39
40 -3 41 -2 77 56 29 48 67 84 175 170 75 60 164 123 197 141 33 17 96 63 140
101 72 63 129 99 140 89 2 -2 0 -130 -5 -284 -8 -298 -10 -311 -64 -390 -22
-31 -27 -48 -23 -77 5 -38 -11 -140 -58 -373 -31 -151 -49 -185 -131 -247
l-57 -43 39 -10 c59 -15 63 -20 53 -62 -5 -23 -4 -85 2 -161 17 -184 10 -254
-34 -332 -33 -60 -36 -75 -46 -190 l-11 -125 35 -30 c42 -36 44 -57 10 -101
-59 -77 -51 -119 29 -149 60 -23 165 -17 203 11 52 39 67 70 65 132 -1 37 6
81 20 124 22 67 22 68 5 165 -10 54 -23 121 -29 148 -10 44 -8 56 10 98 13 29
30 51 45 56 13 5 30 23 37 40 9 24 22 33 54 42 58 15 92 52 116 124 25 74 50
100 110 114 78 17 154 -11 212 -78 36 -42 106 -164 182 -318 39 -79 46 -101
46 -152 0 -33 3 -66 6 -75 3 -9 33 -30 66 -48 82 -44 92 -66 77 -169 -10 -72
-10 -82 6 -99 19 -21 113 -60 144 -60 11 0 64 -18 119 -40 121 -49 180 -53
217 -15 17 16 25 35 25 57 0 28 -11 44 -68 98 -37 36 -78 73 -90 82 -13 11
-22 29 -22 45 0 14 -12 46 -26 71 -19 33 -25 53 -21 78 5 29 2 35 -27 52 -48
28 -85 110 -95 208 -5 47 -17 96 -29 120 l-21 42 21 18 c11 11 27 33 34 51 17
39 6 75 -47 154 -38 57 -40 69 -9 69 10 0 24 7 31 16 18 22 -5 39 -83 60 -32
9 -63 23 -69 30 -6 8 -15 63 -19 122 -7 110 -26 164 -89 257 -14 21 -21 46
-21 81 0 30 -5 56 -13 63 -10 7 -15 55 -18 173 -8 332 -5 394 23 513 15 61 30
127 33 148 3 21 13 41 21 44 8 3 40 -4 70 -16 31 -11 75 -21 97 -21 23 -1 60
-9 82 -20 22 -11 57 -19 78 -20 22 0 49 -9 66 -21 31 -23 197 -68 252 -69 20
0 53 -7 72 -15 20 -8 52 -15 72 -15 32 0 35 2 35 30 0 35 27 50 87 50 26 0 36
5 40 20 3 11 14 20 24 20 13 0 19 7 19 24 0 16 7 27 21 31 16 5 19 12 15 31
-6 22 -4 24 34 24 48 0 50 10 10 44 -55 46 -126 46 -187 0 -50 -38 -95 -31
-269 42 -45 19 -95 34 -111 34 -17 0 -38 8 -48 20 -16 18 -20 18 -47 4 -28
-15 -31 -14 -54 12 -24 25 -29 26 -91 21 l-65 -5 -54 49 c-67 60 -120 94 -190
121 -46 18 -60 19 -92 10 -28 -9 -38 -9 -44 1 -4 7 -2 13 7 15 21 5 19 19 -5
32 -11 6 -20 18 -20 28 0 26 43 112 94 188 29 44 46 80 46 99 0 16 -16 82 -37
145 -33 105 -42 120 -91 173 -52 54 -58 57 -103 57 -38 0 -51 4 -59 20 -6 11
-18 19 -28 19 -9 -1 -62 -5 -117 -9z"/>
</g>
</svg>
